# xmcd
#
# Track frame offsets: 
#        150
#        19997
#        39115
#        57217
#        80512
#        101400
#        116227
#        132260
#        146857
#        159992
#        171762
#        196197
#
# Disc length: 2882 seconds
#
# Revision: 7
# Processed by: cddbd v1.5.2PL0 Copyright (c) Steve Scherf et al.
# Submitted via: ExactAudioCopy v0.99pb5
#
DISCID=9c0b400c
DTITLE=Johnny A. - Sometime Tuesday Morning
DYEAR=1999
DGENRE=Blues
TTITLE0=Sometime Tuesday Morning
TTITLE1=Oh Yeah
TTITLE2=Wichita Lineman
TTITLE3=Two Wheel Horse
TTITLE4=In The Wind
TTITLE5=Yes It Is
TTITLE6=You Don't Love Me
TTITLE7=Up In The Attic
TTITLE8=Walk Don't Run
TTITLE9=Tex Critter
TTITLE10=Lullabye For Nicole
TTITLE11=Walkin' West Ave.
EXTD=YEAR: 1999
EXTT0=
EXTT1=
EXTT2=
EXTT3=
EXTT4=
EXTT5=
EXTT6=
EXTT7=
EXTT8=
EXTT9=
EXTT10=
EXTT11=
PLAYORDER=
